<svg width="44" height="36" viewBox="0 0 44 36" fill="none" xmlns="http://www.w3.org/2000/svg">
    <path d="M8.09839 34.9676V32.7166C8.09839 31.8535 7.57301 31.2909 6.6725 31.2909C6.22232 31.2909 5.73455 31.4409 5.39683 31.9287C5.13432 31.516 4.75917 31.2909 4.19637 31.2909C3.82106 31.2909 3.44608 31.4033 3.1458 31.8161V31.3659H2.35791V34.9676H3.1458V32.9791C3.1458 32.3415 3.48351 32.0412 4.00889 32.0412C4.53392 32.0412 4.79677 32.3789 4.79677 32.9791V34.9676H5.58466V32.9791C5.58466 32.3415 5.95964 32.0412 6.44741 32.0412C6.97278 32.0412 7.2353 32.3789 7.2353 32.9791V34.9676H8.09839ZM19.7665 31.3659H18.491V30.2779H17.7031V31.3659H16.9902V32.0786H17.7029V33.7296C17.7029 34.5551 18.0406 35.0427 18.9412 35.0427C19.2789 35.0427 19.6539 34.9302 19.9167 34.7801L19.6915 34.1047C19.4664 34.2548 19.2038 34.2924 19.0162 34.2924C18.641 34.2924 18.491 34.0673 18.491 33.692V32.0786H19.7665V31.3659ZM26.4449 31.2907C25.9947 31.2907 25.6946 31.516 25.507 31.8161V31.3659H24.7191V34.9676H25.507V32.9417C25.507 32.3415 25.7695 32.0037 26.2572 32.0037C26.4073 32.0037 26.595 32.0413 26.745 32.0788L26.9701 31.3285C26.82 31.2909 26.595 31.2909 26.4449 31.2909V31.2907ZM16.3524 31.666C15.9771 31.4033 15.4519 31.2909 14.8891 31.2909C13.9887 31.2909 13.3885 31.741 13.3885 32.4539C13.3885 33.0543 13.8387 33.3919 14.6266 33.5045L15.0017 33.5421C15.4145 33.6169 15.6396 33.7296 15.6396 33.9172C15.6396 34.1797 15.3394 34.3674 14.8141 34.3674C14.2889 34.3674 13.8761 34.1797 13.6134 33.9923L13.2383 34.5925C13.651 34.8926 14.2138 35.0427 14.7765 35.0427C15.827 35.0427 16.4274 34.5551 16.4274 33.8796C16.4274 33.2418 15.9397 32.9041 15.1892 32.7916L14.8141 32.754C14.4764 32.7164 14.2138 32.6416 14.2138 32.4165C14.2138 32.1538 14.4763 32.0037 14.8891 32.0037C15.3394 32.0037 15.7896 32.1912 16.0147 32.3039L16.3524 31.666ZM37.2879 31.2909C36.8375 31.2909 36.5374 31.516 36.3497 31.8161V31.3659H35.5618V34.9676H36.3497V32.9417C36.3497 32.3415 36.6124 32.0037 37.1 32.0037C37.2503 32.0037 37.4379 32.0413 37.588 32.0788L37.8131 31.3285C37.663 31.2909 37.4379 31.2909 37.2879 31.2909ZM27.2328 33.1668C27.2328 34.2548 27.9831 35.0427 29.1463 35.0427C29.6715 35.0427 30.0466 34.9302 30.4218 34.6301L30.0466 33.9923C29.7465 34.2173 29.4464 34.3298 29.1087 34.3298C28.4709 34.3298 28.0207 33.8796 28.0207 33.1668C28.0207 32.4915 28.4709 32.0412 29.1087 32.0037C29.4464 32.0037 29.7465 32.1162 30.0466 32.3415L30.4218 31.7036C30.0466 31.4033 29.6715 31.2909 29.1463 31.2909C27.9831 31.2909 27.2328 32.0788 27.2328 33.1668ZM34.5114 33.1668V31.3659H33.7236V31.8161C33.4609 31.4785 33.0857 31.2909 32.598 31.2909C31.585 31.2909 30.7971 32.0788 30.7971 33.1668C30.7971 34.2548 31.585 35.0427 32.598 35.0427C33.1232 35.0427 33.4985 34.8552 33.7236 34.5175V34.9676H34.5114V33.1668ZM31.6224 33.1668C31.6224 32.5289 32.0352 32.0037 32.7104 32.0037C33.3482 32.0037 33.7986 32.4915 33.7986 33.1668C33.7986 33.8046 33.3482 34.3298 32.7104 34.3298C32.0352 34.2922 31.6224 33.8046 31.6224 33.1668ZM22.2053 31.2909C21.1548 31.2909 20.4043 32.0412 20.4043 33.1668C20.4043 34.2924 21.1546 35.0427 22.2428 35.0427C22.768 35.0427 23.2934 34.8926 23.7061 34.5551L23.3308 33.9923C23.0307 34.2173 22.6555 34.3674 22.2804 34.3674C21.7926 34.3674 21.3048 34.1423 21.1922 33.5043H23.8562V33.2044C23.8938 32.0412 23.2183 31.2909 22.2052 31.2909H22.2053ZM22.2053 31.9661C22.6929 31.9661 23.0308 32.2664 23.1057 32.8292H21.2298C21.3048 32.3414 21.6425 31.9661 22.2053 31.9661ZM41.7525 33.1668V29.9402H40.9646V31.8161C40.7019 31.4785 40.3268 31.2909 39.839 31.2909C38.826 31.2909 38.0381 32.0788 38.0381 33.1668C38.0381 34.2548 38.826 35.0427 39.839 35.0427C40.3644 35.0427 40.7395 34.8552 40.9646 34.5175V34.9676H41.7525V33.1668ZM38.8636 33.1668C38.8636 32.5289 39.2762 32.0037 39.9516 32.0037C40.5895 32.0037 41.0396 32.4915 41.0396 33.1668C41.0396 33.8046 40.5895 34.3298 39.9516 34.3298C39.2762 34.2922 38.8636 33.8046 38.8636 33.1668ZM12.5254 33.1668V31.3659H11.7375V31.8161C11.4749 31.4785 11.0997 31.2909 10.6119 31.2909C9.59896 31.2909 8.81107 32.0788 8.81107 33.1668C8.81107 34.2548 9.59896 35.0427 10.6119 35.0427C11.1373 35.0427 11.5125 34.8552 11.7375 34.5175V34.9676H12.5254V33.1668ZM9.59896 33.1668C9.59896 32.5289 10.0117 32.0037 10.687 32.0037C11.3248 32.0037 11.7751 32.4915 11.7751 33.1668C11.7751 33.8046 11.3248 34.3298 10.687 34.3298C10.0117 34.2922 9.59896 33.8046 9.59896 33.1668Z" fill="white"/>
    <path d="M16.8353 13.6607C16.8353 9.34608 18.8612 5.51909 21.9752 3.0428C19.6867 1.24193 16.7979 0.153931 13.6463 0.153931C6.17983 0.153931 0.139404 6.19435 0.139404 13.6607C0.139404 21.1268 6.17983 27.1674 13.6461 27.1674C16.7977 27.1674 19.6866 26.0794 21.9752 24.2784C18.8612 21.8397 16.8353 17.9753 16.8353 13.6607Z" fill="#EB001B"/>
    <path d="M43.8478 13.6612C43.8478 21.1273 37.8073 27.1679 30.341 27.1679C27.1895 27.1679 24.3006 26.0799 22.012 24.2788C25.1635 21.8027 27.152 17.9757 27.152 13.6612C27.152 9.34657 25.1259 5.51958 22.012 3.04329C24.3004 1.24242 27.1895 0.154419 30.341 0.154419C37.8073 0.154419 43.8479 6.23244 43.8479 13.6612H43.8478Z" fill="#F79E1B"/>
</svg>
